# xmcd
#
# Track frame offsets:
#	150
#	8565
#	32786
#	56562
#	75361
#	95583
#	115525
#	142784
#	160559
#	179348
#	198287
#	214506
#	240478
#	268058
#	292384
#	312620
#
# Disc length: 4428 seconds
#
# Revision: 1
# Processed by: cddbd v1.5.2PL0 Copyright (c) Steve Scherf et al.
# Submitted via: audiograbber 1.83.01
#
DISCID=d2114a10
DTITLE=20-2-Life - Don't Hustle Don't Eat
DYEAR=2000
DGENRE=Rap
TTITLE0=20-2-Life - Intro
TTITLE1=20-2-Life, The Cellmates - Swangin'
TTITLE2=20-2-Life, The Cellmates - Made It Happen
TTITLE3=20-2-Life, C-Loc, Bob The Boss Playa - Throwed
TTITLE4=20-2-Life, C-Loc - Money, Money, Cash
TTITLE5=20-2-Life, Shorty The Xtended Don - The Industry Mine
TTITLE6=20-2-Life, Shorty The Xtended Don - My Life
TTITLE7=20-2-Life - Real
TTITLE8=20-2-Life - Where They From (Houston)
TTITLE9=20-2-Life - Don't Hustle, Don't Eat
TTITLE10=20-2-Life - Roofin It Pt. II (The Party Don't Stop)
TTITLE11=20-2-Life, Lil Keke - Bang and Tint
TTITLE12=20-2-Life - As The World Goes
TTITLE13=20-2-Life, Mista Madd - Boppers
TTITLE14=20-2-Life, PSK-13 - Ondagrind
TTITLE15=20-2-Life - Swangin' (Hustlers Remix)
EXTD=www.RapMusicGuide.com
EXTT0=
EXTT1=
EXTT2=
EXTT3=
EXTT4=
EXTT5=
EXTT6=
EXTT7=
EXTT8=
EXTT9=
EXTT10=
EXTT11=
EXTT12=
EXTT13=
EXTT14=
EXTT15=
PLAYORDER=
